<svg width="40" height="40" viewBox="0 0 40 40" fill="none" xmlns="http://www.w3.org/2000/svg">
<path fill-rule="evenodd" clip-rule="evenodd" d="M1.66667 4.72999C1.66667 3.91755 1.98942 3.13838 2.5639 2.56389C3.13839 1.9894 3.91756 1.66666 4.73001 1.66666H35.2667C35.6693 1.666 36.0681 1.74477 36.4402 1.89844C36.8124 2.05211 37.1506 2.27768 37.4354 2.56222C37.7203 2.84677 37.9462 3.1847 38.1003 3.55668C38.2544 3.92865 38.3336 4.32737 38.3333 4.72999V35.2667C38.3338 35.6694 38.2548 36.0682 38.101 36.4404C37.9471 36.8125 37.7214 37.1507 37.4367 37.4355C37.152 37.7203 36.814 37.9463 36.4419 38.1003C36.0698 38.2544 35.671 38.3336 35.2683 38.3333H4.73001C4.32758 38.3333 3.9291 38.254 3.55733 38.1C3.18556 37.9459 2.84779 37.7201 2.56331 37.4355C2.27883 37.1509 2.05323 36.813 1.89938 36.4411C1.74553 36.0693 1.66645 35.6708 1.66667 35.2683V4.72999ZM16.18 15.6467H21.145V18.14C21.8617 16.7067 23.695 15.4167 26.45 15.4167C31.7317 15.4167 32.9833 18.2717 32.9833 23.51V33.2133H27.6383V24.7033C27.6383 21.72 26.9217 20.0367 25.1017 20.0367C22.5767 20.0367 21.5267 21.8517 21.5267 24.7033V33.2133H16.18V15.6467ZM7.01334 32.985H12.36V15.4167H7.01334V32.9833V32.985ZM13.125 9.68666C13.1351 10.1444 13.0536 10.5996 12.8854 11.0255C12.7172 11.4514 12.4656 11.8394 12.1454 12.1667C11.8252 12.494 11.4428 12.7541 11.0208 12.9317C10.5987 13.1092 10.1454 13.2007 9.68751 13.2007C9.22961 13.2007 8.77632 13.1092 8.35425 12.9317C7.93218 12.7541 7.54982 12.494 7.22962 12.1667C6.90942 11.8394 6.65783 11.4514 6.48961 11.0255C6.32139 10.5996 6.23993 10.1444 6.25001 9.68666C6.26979 8.78809 6.64065 7.93298 7.28315 7.30447C7.92565 6.67596 8.78871 6.32402 9.68751 6.32402C10.5863 6.32402 11.4494 6.67596 12.0919 7.30447C12.7344 7.93298 13.1052 8.78809 13.125 9.68666Z" fill="#454545"/>
</svg>
